PathFileType	4	(X/Y/Z)	C:\Users\italobelli\Desktop\GitHub\PTbot_officialCBL\Personal_Results\FLX21_noisy1.trc
DataRate	CameraRate	NumFrames	NumMarkers	Units	OrigDataRate	OrigDataStartFrame	OrigNumFrames
107.000000	107.000000	17	9	m	107.000000	188	750
Frame#	Time		gu		centelbow		EpL		centpxt8		centijc7		ij		ts		aa		ai
			X1	Y1	Z1	X2	Y2	Z2	X3	Y3	Z3	X4	Y4	Z4	X5	Y5	Z5	X6	Y6	Z6	X7	Y7	Z7	X8	Y8	Z8	X9	Y9	Z9

188	1.7477	-0.086501	0.0603	0.11652	0.090653	0.19935	0.21721	0.070939	0.22296	0.21294	-0.046816	-0.15316	-0.008669	-0.046816	0.031938	-0.008669	0	0	0	-0.15129	-0.0097762	0.060895	-0.11029	0.079976	0.12613	-0.12461	-0.078353	0.14729
189	1.757	-0.086767	0.060331	0.11617	0.088619	0.20238	0.21642	0.06866	0.22574	0.21185	-0.046816	-0.15316	-0.008669	-0.046816	0.031938	-0.008669	0	0	0	-0.15099	-0.010192	0.060839	-0.11073	0.080131	0.12575	-0.12419	-0.078187	0.14764
190	1.7664	-0.08703	0.060359	0.11583	0.08659	0.20537	0.21563	0.066387	0.22847	0.21074	-0.046816	-0.15316	-0.008669	-0.046816	0.031938	-0.008669	0	0	0	-0.15068	-0.010606	0.060782	-0.11117	0.080282	0.12537	-0.12376	-0.078022	0.14799
191	1.7757	-0.087289	0.060386	0.11548	0.084567	0.20829	0.21483	0.064122	0.23114	0.20964	-0.046816	-0.15316	-0.008669	-0.046816	0.031938	-0.008669	0	0	0	-0.15038	-0.011018	0.060726	-0.1116	0.080428	0.12499	-0.12334	-0.077858	0.14833
192	1.785	-0.087543	0.060411	0.11515	0.082553	0.21116	0.21402	0.061869	0.23375	0.20853	-0.046816	-0.15316	-0.008669	-0.046816	0.031938	-0.008669	0	0	0	-0.15007	-0.011427	0.060671	-0.11204	0.080569	0.12463	-0.12291	-0.077694	0.14867
193	1.7944	-0.087794	0.060435	0.11481	0.080552	0.21397	0.21321	0.05963	0.23631	0.20742	-0.046816	-0.15316	-0.008669	-0.046816	0.031938	-0.008669	0	0	0	-0.14976	-0.011833	0.060616	-0.11247	0.080705	0.12426	-0.12248	-0.07753	0.149
194	1.8037	-0.08804	0.060456	0.11448	0.078566	0.21671	0.2124	0.05741	0.2388	0.2063	-0.046816	-0.15316	-0.008669	-0.046816	0.031938	-0.008669	0	0	0	-0.14944	-0.012235	0.060562	-0.11289	0.080837	0.1239	-0.12206	-0.077368	0.14933
195	1.8131	-0.088282	0.060476	0.11415	0.076597	0.21939	0.21158	0.05521	0.24122	0.20519	-0.046816	-0.15316	-0.008669	-0.046816	0.031938	-0.008669	0	0	0	-0.14913	-0.012632	0.060509	-0.11332	0.080963	0.12355	-0.12163	-0.077206	0.14964
196	1.8224	-0.088519	0.060494	0.11383	0.07465	0.222	0.21076	0.053035	0.24358	0.20408	-0.046816	-0.15316	-0.008669	-0.046816	0.031938	-0.008669	0	0	0	-0.14882	-0.013026	0.060457	-0.11373	0.081085	0.1232	-0.1212	-0.077044	0.14995
197	1.8318	-0.088751	0.06051	0.11351	0.072725	0.22455	0.20994	0.050886	0.24587	0.20298	-0.046816	-0.15316	-0.008669	-0.046816	0.031938	-0.008669	0	0	0	-0.14851	-0.013414	0.060406	-0.11414	0.081201	0.12286	-0.12077	-0.076884	0.15026
198	1.8411	-0.088978	0.060524	0.11319	0.070827	0.22701	0.20912	0.048768	0.24809	0.20188	-0.046816	-0.15316	-0.008669	-0.046816	0.031938	-0.008669	0	0	0	-0.14819	-0.013796	0.060357	-0.11455	0.081312	0.12252	-0.12035	-0.076724	0.15055
199	1.8505	-0.0892	0.060536	0.11288	0.068958	0.2294	0.2083	0.046683	0.25023	0.20079	-0.046816	-0.15316	-0.008669	-0.046816	0.031938	-0.008669	0	0	0	-0.14788	-0.014173	0.06031	-0.11495	0.081419	0.12219	-0.11992	-0.076565	0.15084
200	1.8598	-0.089416	0.060547	0.11258	0.06712	0.23172	0.20748	0.044633	0.2523	0.1997	-0.046816	-0.15316	-0.008669	-0.046816	0.031938	-0.008669	0	0	0	-0.14758	-0.014543	0.060264	-0.11534	0.08152	0.12187	-0.1195	-0.076406	0.15113
201	1.8692	-0.089627	0.060555	0.11227	0.065318	0.23395	0.20667	0.042624	0.25429	0.19863	-0.046816	-0.15316	-0.008669	-0.046816	0.031938	-0.008669	0	0	0	-0.14727	-0.014907	0.06022	-0.11572	0.081616	0.12155	-0.11908	-0.076249	0.1514
202	1.8785	-0.089832	0.060562	0.11198	0.063552	0.2361	0.20586	0.040656	0.2562	0.19756	-0.046816	-0.15316	-0.008669	-0.046816	0.031938	-0.008669	0	0	0	-0.14697	-0.015263	0.060177	-0.11609	0.081706	0.12125	-0.11866	-0.076092	0.15167
203	1.8879	-0.090032	0.060567	0.11169	0.061827	0.23816	0.20506	0.038734	0.25802	0.19651	-0.046816	-0.15316	-0.008669	-0.046816	0.031938	-0.008669	0	0	0	-0.14667	-0.015612	0.060137	-0.11646	0.081791	0.12094	-0.11824	-0.075936	0.15193
204	1.8972	-0.090225	0.06057	0.1114	0.060144	0.24014	0.20426	0.03686	0.25976	0.19547	-0.046816	-0.15316	-0.008669	-0.046816	0.031938	-0.008669	0	0	0	-0.14638	-0.015952	0.0601	-0.11681	0.081871	0.12065	-0.11782	-0.075781	0.15218
